<svg xmlns="http://www.w3.org/2000/svg" width="640" height="480" viewBox="0 0 640 480" fill="none">
  <rect width="640" height="480" fill="#F4F7F1"/>
  <rect x="24" y="24" width="592" height="432" rx="24" fill="#FFFFFF" stroke="#D5DDCE"/>
  <g opacity="0.5">
    <rect x="120" y="120" width="120" height="80" rx="18" fill="#DDE7D4"/>
    <rect x="260" y="160" width="140" height="90" rx="22" fill="#C9D9BF"/>
    <rect x="420" y="120" width="96" height="68" rx="18" fill="#E6EFE0"/>
  </g>
  <path d="M120 320C170 300 210 280 260 276C310 272 352 298 402 288C452 278 496 260 528 242" stroke="#6B8F71" stroke-width="4" stroke-linecap="round"/>
  <g fill="#6B8F71">
    <circle cx="120" cy="320" r="4"/>
    <circle cx="210" cy="280" r="4"/>
    <circle cx="260" cy="276" r="4"/>
    <circle cx="352" cy="298" r="4"/>
    <circle cx="402" cy="288" r="4"/>
    <circle cx="496" cy="260" r="4"/>
    <circle cx="528" cy="242" r="4"/>
  </g>
  <g opacity="0.35">
    <path d="M100 110H540" stroke="#BFC8B8" stroke-width="1" stroke-dasharray="4 8"/>
    <path d="M100 200H540" stroke="#BFC8B8" stroke-width="1" stroke-dasharray="4 8"/>
    <path d="M100 290H540" stroke="#BFC8B8" stroke-width="1" stroke-dasharray="4 8"/>
  </g>
</svg>
